<svg version="1.1" baseProfile="full" xmlns="http://www.w3.org/2000/svg" xmlns:xlink="http://www.w3.org/1999/xlink" xmlns:ev="http://www.w3.org/2001/xml-events" xml:space="preserve" x="0px" y="0px" width="30px" height="30px"  viewBox="0 0 30 30" preserveAspectRatio="none" shape-rendering="geometricPrecision"><path fill="#ff6f00" d="M12.6923077,25.0961538 C5.84185262,25.0961538 0.288461538,19.5427628 0.288461538,12.6923077 C0.288461538,5.84185262 5.84185262,0.288461538 12.6923077,0.288461538 C19.5427628,0.288461538 25.0961538,5.84185262 25.0961538,12.6923077 C25.0961538,19.5427628 19.5427628,25.0961538 12.6923077,25.0961538 Z M12.6923077,23.3653846 C18.5868853,23.3653846 23.3653846,18.5868853 23.3653846,12.6923077 C23.3653846,6.79773007 18.5868853,2.01923077 12.6923077,2.01923077 C6.79773007,2.01923077 2.01923077,6.79773007 2.01923077,12.6923077 C2.01923077,18.5868853 6.79773007,23.3653846 12.6923077,23.3653846 Z M8.04771032,12.7206866 L11.5315338,16.1104272 L18.931617,8.74394279 C19.2703388,8.40675891 19.8182686,8.40800563 20.1554525,8.74672743 C20.4926364,9.08544922 20.4913897,9.63337903 20.1526679,9.97056292 L12.148987,17.9379044 C11.814082,18.2712888 11.2736619,18.2743723 10.9349745,17.9448313 L6.84073619,13.9611606 C6.49818877,13.6278639 6.49068959,13.079984 6.82398629,12.7374365 C7.157283,12.3948891 7.70516291,12.3873899 8.04771032,12.7206866 Z" id="path-1"></path></svg>